<?xml version="1.0" encoding="utf-8"?>
<!-- Generator: Adobe Illustrator 25.2.1, SVG Export Plug-In . SVG Version: 6.00 Build 0)  -->
<svg version="1.1" id="Слой_1" xmlns="http://www.w3.org/2000/svg" xmlns:xlink="http://www.w3.org/1999/xlink" x="0px" y="0px"
	 viewBox="0 0 121 121" style="enable-background:new 0 0 121 121;" xml:space="preserve">
<style type="text/css">
	.st0{fill:#2E2E2E;fill-opacity:0.8;}
	.st1{fill:#FFFFFF;}
</style>
<path class="st0" d="M87.4,24.6H32.8c-12.1,0-21.9,9.4-21.9,21.1v31.6c0,11.6,9.8,21.1,21.9,21.1h54.6c12.1,0,21.9-9.4,21.9-21.1
	V45.7C109.3,34,99.5,24.6,87.4,24.6z"/>
<g>
	<path class="st1" d="M50.1,45.1l25,15l-25,15V45.1z"/>
	<path class="st1" d="M50.1,78.9c-0.6,0-1.3-0.2-1.9-0.5c-1.2-0.7-1.9-1.9-1.9-3.3V45.1c0-1.4,0.7-2.6,1.9-3.3
		c1.2-0.7,2.6-0.6,3.8,0l25,15c1.1,0.7,1.8,1.9,1.8,3.2c0,1.3-0.7,2.5-1.8,3.2l-25,15C51.4,78.7,50.8,78.9,50.1,78.9z M53.8,51.7
		v16.8l14-8.4L53.8,51.7z"/>
</g>
</svg>
