<?xml version="1.0" encoding="utf-8"?>
<!-- Generator: Adobe Illustrator 25.2.1, SVG Export Plug-In . SVG Version: 6.00 Build 0)  -->
<svg version="1.1" id="Слой_1" xmlns="http://www.w3.org/2000/svg" xmlns:xlink="http://www.w3.org/1999/xlink" x="0px" y="0px"
	 viewBox="0 0 35 35" style="enable-background:new 0 0 35 35;" xml:space="preserve">
<style type="text/css">
	.st0{fill:#C5E1E6;}
</style>
<path class="st0" d="M29.2,9.8H5.8c-0.6,0-1.1-0.5-1.1-1.1s0.5-1.1,1.1-1.1h23.3c0.6,0,1.1,0.5,1.1,1.1S29.8,9.8,29.2,9.8z"/>
<path class="st0" d="M29.2,18.6H5.8c-0.6,0-1.1-0.5-1.1-1.1s0.5-1.1,1.1-1.1h23.3c0.6,0,1.1,0.5,1.1,1.1S29.8,18.6,29.2,18.6z"/>
<path class="st0" d="M29.2,27.3H5.8c-0.6,0-1.1-0.5-1.1-1.1s0.5-1.1,1.1-1.1h23.3c0.6,0,1.1,0.5,1.1,1.1S29.8,27.3,29.2,27.3z"/>
</svg>
