<?xml version="1.0" encoding="utf-8"?>
<!-- Generator: Adobe Illustrator 25.2.1, SVG Export Plug-In . SVG Version: 6.00 Build 0)  -->
<svg version="1.1" id="Слой_1" xmlns="http://www.w3.org/2000/svg" xmlns:xlink="http://www.w3.org/1999/xlink" x="0px" y="0px"
	 viewBox="0 0 24 24" style="enable-background:new 0 0 24 24;" xml:space="preserve">
<style type="text/css">
	.st0{fill:#19707D;}
</style>
<path class="st0" d="M4,21.8c-0.1,0-0.2,0-0.3-0.1c-0.3-0.1-0.5-0.4-0.5-0.7V8c0-1,0.4-1.9,1.1-2.7S6,4.2,7,4.2h10
	c1,0,1.9,0.4,2.7,1.1S20.8,7,20.8,8v6c0,1-0.4,2-1.1,2.7c-0.7,0.7-1.7,1.1-2.7,1.1H8.3l-3.8,3.8C4.4,21.7,4.2,21.8,4,21.8z M7,5.7
	C6.4,5.7,5.8,6,5.4,6.4C5,6.8,4.8,7.4,4.8,8v11.2l2.7-2.7c0.1-0.1,0.3-0.2,0.5-0.2h9c0.6,0,1.2-0.2,1.6-0.7c0.4-0.4,0.7-1,0.7-1.6V8
	c0-0.6-0.2-1.2-0.7-1.6c-0.4-0.4-1-0.7-1.6-0.7H7z"/>
<path class="st0" d="M16,9.7H8C7.6,9.7,7.3,9.4,7.3,9S7.6,8.2,8,8.2h8c0.4,0,0.8,0.3,0.8,0.8S16.4,9.7,16,9.7z"/>
<path class="st0" d="M14,13.8H8c-0.4,0-0.8-0.3-0.8-0.8s0.3-0.8,0.8-0.8h6c0.4,0,0.8,0.3,0.8,0.8S14.4,13.8,14,13.8z"/>
</svg>
