<svg width="22" height="18" viewBox="0 0 22 18" fill="none" xmlns="http://www.w3.org/2000/svg">
<path fill-rule="evenodd" clip-rule="evenodd" d="M19.3334 0.850098C20.2872 0.850098 21.0683 1.60454 21.1441 2.56166L21.1501 2.71438V15.2858C21.1501 16.2627 20.4166 17.066 19.4825 17.1439L19.3334 17.1501H2.66676C1.71302 17.1501 0.931848 16.3957 0.856115 15.4385L0.850098 15.2858V2.71438C0.850098 1.73746 1.58358 0.934173 2.51768 0.856287L2.66676 0.850098H19.3334ZM19.7381 8.0071H2.2611L2.26121 15.2858C2.26121 15.4891 2.40193 15.6593 2.58567 15.6987L2.66676 15.7072H19.3334C19.5275 15.7072 19.6924 15.5625 19.7307 15.3706L19.739 15.2858L19.7381 8.0071ZM7.2501 12.2787C7.53177 12.2787 7.76543 12.49 7.80935 12.7639L7.81676 12.8572V13.143C7.81676 13.4288 7.61127 13.6688 7.34202 13.7139L7.2501 13.7215H4.7501C4.46842 13.7215 4.23476 13.5102 4.19085 13.2363L4.18343 13.143V12.8572C4.18343 12.5714 4.38893 12.3314 4.65818 12.2863L4.7501 12.2787H7.2501ZM13.9168 12.2787C14.1984 12.2787 14.4321 12.49 14.476 12.7639L14.4834 12.8572V13.143C14.4834 13.4288 14.2779 13.6688 14.0087 13.7139L13.9168 13.7215H9.19454C8.91287 13.7215 8.67921 13.5102 8.63529 13.2363L8.62788 13.143V12.8572C8.62788 12.5714 8.83337 12.3314 9.10262 12.2863L9.19454 12.2787H13.9168ZM19.3334 2.29295H2.66676C2.47273 2.29295 2.30775 2.4377 2.26954 2.62956L2.26121 2.71438L2.2611 4.2781H19.7381L19.739 2.71438C19.739 2.51106 19.5983 2.3409 19.4145 2.30153L19.3334 2.29295Z" fill="#2A8088"/>
</svg>
