<?xml version="1.0" encoding="utf-8"?>
<!-- Generator: Adobe Illustrator 25.2.1, SVG Export Plug-In . SVG Version: 6.00 Build 0)  -->
<svg version="1.1" id="Слой_1" xmlns="http://www.w3.org/2000/svg" xmlns:xlink="http://www.w3.org/1999/xlink" x="0px" y="0px"
	 viewBox="0 0 20 18" style="enable-background:new 0 0 20 18;" xml:space="preserve">
<style type="text/css">
	.st0{fill:#19707D;}
</style>
<path class="st0" d="M10,17.8c-0.2,0-0.4-0.1-0.5-0.2L2,10.1c-0.6-0.6-1-1.2-1.3-2C0.4,7.4,0.2,6.6,0.3,5.8c0-0.8,0.2-1.6,0.5-2.3
	c0.3-0.7,0.8-1.4,1.4-1.9c0.6-0.5,1.3-0.9,2.1-1.2C5,0.3,5.8,0.2,6.6,0.3C7.4,0.4,8.2,0.6,8.9,1C9.3,1.3,9.7,1.5,10,1.9
	c0.3-0.3,0.7-0.6,1.2-0.9c0.7-0.4,1.4-0.6,2.2-0.7c0.8-0.1,1.6,0,2.3,0.2c0.8,0.2,1.4,0.6,2,1.2c0.6,0.5,1.1,1.2,1.4,1.9
	c0.3,0.7,0.5,1.5,0.5,2.3c0,0.8-0.1,1.6-0.4,2.3c-0.3,0.7-0.7,1.4-1.3,2c0,0,0,0-0.1,0.1l-7.4,7.4C10.4,17.7,10.2,17.8,10,17.8z
	 M6,1.7c-0.4,0-0.9,0.1-1.3,0.2C4.2,2.1,3.6,2.4,3.2,2.8c-0.4,0.4-0.8,0.9-1,1.4C1.9,4.7,1.8,5.3,1.8,5.9c0,0.6,0.1,1.2,0.3,1.7
	c0.2,0.5,0.5,1,1,1.4l7,6.9l7-6.9C17,9,17,9,17,9c0.4-0.4,0.7-0.9,0.9-1.4c0.2-0.5,0.3-1.1,0.3-1.7c0-0.6-0.2-1.2-0.4-1.7
	c-0.3-0.5-0.6-1-1-1.4c-0.4-0.4-1-0.7-1.5-0.9c-0.6-0.2-1.1-0.2-1.7-0.2C13,1.9,12.4,2,11.9,2.3c-0.5,0.3-1,0.7-1.3,1.1
	c-0.1,0.2-0.4,0.3-0.6,0.3c0,0,0,0,0,0c-0.2,0-0.5-0.1-0.6-0.3C9.1,3,8.6,2.6,8.1,2.3C7.6,2,7,1.8,6.5,1.8C6.3,1.8,6.1,1.7,6,1.7z"
	/>
</svg>
