<?xml version="1.0" encoding="utf-8"?>
<!-- Generator: Adobe Illustrator 25.2.1, SVG Export Plug-In . SVG Version: 6.00 Build 0)  -->
<svg version="1.1" id="Слой_1" xmlns="http://www.w3.org/2000/svg" xmlns:xlink="http://www.w3.org/1999/xlink" x="0px" y="0px"
	 viewBox="0 0 42 42" style="enable-background:new 0 0 42 42;" xml:space="preserve">
<style type="text/css">
	.st0{fill:#19707D;}
</style>
<path class="st0" d="M21,42C9.4,42,0,32.6,0,21S9.4,0,21,0c11.6,0,21,9.4,21,21S32.6,42,21,42z M21,1.5C10.2,1.5,1.5,10.2,1.5,21
	S10.2,40.5,21,40.5c10.8,0,19.5-8.7,19.5-19.5S31.8,1.5,21,1.5z"/>
<path class="st0" d="M22,31h-2.2V18.3H22V31z M19.7,15c0-0.4,0.1-0.6,0.3-0.9c0.2-0.2,0.5-0.4,1-0.4c0.4,0,0.7,0.1,1,0.4
	c0.2,0.2,0.3,0.5,0.3,0.9c0,0.4-0.1,0.6-0.3,0.9c-0.2,0.2-0.5,0.4-1,0.4c-0.4,0-0.7-0.1-1-0.4C19.8,15.6,19.7,15.3,19.7,15z"/>
</svg>
