<?xml version="1.0" encoding="utf-8"?>
<!-- Generator: Adobe Illustrator 25.2.1, SVG Export Plug-In . SVG Version: 6.00 Build 0)  -->
<svg version="1.1" id="Слой_1" xmlns="http://www.w3.org/2000/svg" xmlns:xlink="http://www.w3.org/1999/xlink" x="0px" y="0px"
	 viewBox="0 0 13 16" style="enable-background:new 0 0 13 16;" xml:space="preserve">
<style type="text/css">
	.st0{fill:#2A8088;}
	.st1{fill:#FFFFFF;}
</style>
<path class="st0" d="M1.3,6.2h10.4c0.7,0,1.3,0.6,1.3,1.3V14c0,0.7-0.6,1.3-1.3,1.3H1.3C0.6,15.3,0,14.7,0,14V7.5
	C0,6.8,0.6,6.2,1.3,6.2z"/>
<path class="st0" d="M10.9,6.2h-1c0-3.2-1.8-4.7-3.4-4.7C4.9,1.5,3.1,3,3.1,6.2h-1c0-3.9,2.3-5.7,4.4-5.7S10.9,2.3,10.9,6.2z"/>
<path class="st1" d="M4.3,9.7c-0.2-0.2-0.5-0.2-0.7,0s-0.2,0.5,0,0.7L4.3,9.7z M6.5,12.7l-0.4,0.4l0.4,0.4l0.4-0.4L6.5,12.7z
	 M10.8,9.2c0.2-0.2,0.2-0.5,0-0.7c-0.2-0.2-0.5-0.2-0.7,0L10.8,9.2z M3.5,10.5l2.6,2.6l0.7-0.7L4.3,9.7L3.5,10.5z M6.9,13.1l3.9-3.9
	L10,8.4l-3.9,3.9L6.9,13.1z"/>
</svg>
