<?xml version="1.0" encoding="utf-8"?>
<!-- Generator: Adobe Illustrator 25.2.1, SVG Export Plug-In . SVG Version: 6.00 Build 0)  -->
<svg version="1.1" id="Слой_1" xmlns="http://www.w3.org/2000/svg" xmlns:xlink="http://www.w3.org/1999/xlink" x="0px" y="0px"
	 viewBox="0 0 33 38" style="enable-background:new 0 0 33 38;" xml:space="preserve">
<style type="text/css">
	.st0{fill:#FFFFFF;}
</style>
<g>
	<path class="st0" d="M4.1,4.1l25,15l-25,15V4.1z"/>
	<path class="st0" d="M4.1,37.9c-0.6,0-1.3-0.2-1.9-0.5c-1.2-0.7-1.9-1.9-1.9-3.3V4.1c0-1.4,0.7-2.6,1.9-3.3c1.2-0.7,2.6-0.6,3.8,0
		l25,15c1.1,0.7,1.8,1.9,1.8,3.2s-0.7,2.5-1.8,3.2l-25,15C5.4,37.7,4.8,37.9,4.1,37.9z M7.8,10.7v16.8l14-8.4L7.8,10.7z"/>
</g>
</svg>
