<?xml version="1.0" encoding="utf-8"?>
<!-- Generator: Adobe Illustrator 25.2.1, SVG Export Plug-In . SVG Version: 6.00 Build 0)  -->
<svg version="1.1" id="Слой_1" xmlns="http://www.w3.org/2000/svg" xmlns:xlink="http://www.w3.org/1999/xlink" x="0px" y="0px"
	 viewBox="0 0 32 32" style="enable-background:new 0 0 32 32;" xml:space="preserve">
<style type="text/css">
	.st0{fill:#C5E1E6;}
</style>
<path class="st0" d="M13.3,24C7.4,24,2.6,19.2,2.6,13.3c0-5.9,4.8-10.7,10.7-10.7S24,7.4,24,13.3C24,19.2,19.2,24,13.3,24z
	 M13.3,5.4c-4.4,0-8,3.6-8,8c0,4.4,3.6,8,8,8s8-3.6,8-8C21.3,8.9,17.7,5.4,13.3,5.4z"/>
<path class="st0" d="M28,29.4c-0.4,0-0.7-0.1-1-0.4l-8-8c-0.5-0.5-0.5-1.4,0-1.9c0.5-0.5,1.4-0.5,1.9,0l8,8c0.5,0.5,0.5,1.4,0,1.9
	C28.7,29.2,28.4,29.4,28,29.4z"/>
</svg>
