<?xml version="1.0" encoding="utf-8"?>
<!-- Generator: Adobe Illustrator 25.2.1, SVG Export Plug-In . SVG Version: 6.00 Build 0)  -->
<svg version="1.1" id="Слой_1" xmlns="http://www.w3.org/2000/svg" xmlns:xlink="http://www.w3.org/1999/xlink" x="0px" y="0px"
	 viewBox="0 0 32 32" style="enable-background:new 0 0 32 32;" xml:space="preserve">
<style type="text/css">
	.st0{fill:#216E7A;}
</style>
<g>
	<g>
		<g>
			<path class="st0" d="M25.4,27.7H6.7C4.7,27.7,3,26,3,24V12c0-2,1.7-3.7,3.7-3.7h18.6c2,0,3.7,1.6,3.8,3.6l0,12.1
				C29.1,26,27.4,27.7,25.4,27.7z M6.7,10.3C5.7,10.3,5,11,5,12v12c0,1,0.7,1.7,1.7,1.7h18.7c1,0,1.7-0.7,1.7-1.7V12
				c-0.1-0.9-0.9-1.7-1.8-1.7H6.7z"/>
		</g>
	</g>
</g>
<path class="st0" d="M16,10.3c-0.3,0-0.5-0.1-0.7-0.3L10,4.7c-0.4-0.4-0.4-1,0-1.4s1-0.4,1.4,0L16,7.9l4.6-4.6c0.4-0.4,1-0.4,1.4,0
	s0.4,1,0,1.4L16.7,10C16.5,10.2,16.3,10.3,16,10.3z"/>
</svg>
